<?xml version="1.0" encoding="UTF-8"?>
<svg width="1051px" height="211px" viewBox="0 0 1051 211" version="1.1" xmlns="http://www.w3.org/2000/svg" xmlns:xlink="http://www.w3.org/1999/xlink">
    <!-- Generator: Sketch 45.2 (43514) - http://www.bohemiancoding.com/sketch -->
    <title>Group</title>
    <desc>Created with Sketch.</desc>
    <defs></defs>
    <g id="Page-1" stroke="none" stroke-width="1" fill="none" fill-rule="evenodd">
        <g id="Group">
            <g transform="translate(258.000000, 0.000000)" id="Shape" fill-rule="nonzero">
                <polygon fill="#6D4B75" points="14.2 84 0.6 84 0.6 73.2 44.2 73.2 44.2 84 27.8 84 59.5 155.6 91.2 84 74.1 84 74.1 73.2 117.7 73.2 117.7 84 104.1 84 61.4 175.7 56.9 175.7"></polygon>
                <path d="M135.5,161 L152.9,161 L152.9,84 L135.5,84 L135.5,73.2 L164.8,73.2 L164.8,161 L182.4,161 L182.4,171.8 L135.5,171.8 L135.5,161 L135.5,161 Z M145.8,32 C145.8,25.9 150.7,20.7 156.8,20.7 C162.7,20.7 167.6,25.9 167.6,32 C167.6,38.1 162.7,43.3 156.8,43.3 C150.8,43.2 145.8,38.1 145.8,32 Z" fill="#6D4B75"></path>
                <path d="M199.1,123.2 C199.1,95.5 217.9,71.3 248.8,71.3 C260.8,71.3 272.3,75.8 280.9,84 L280.9,10.8 L260.5,10.8 L260.5,0 L292.9,0 L292.9,161 L309.3,161 L309.3,171.8 L281.4,171.8 L281.4,156.5 C272.7,166.8 261.9,173.6 246.4,173.6 C220.5,173.7 199.1,153.7 199.1,123.2 Z M281,146.2 L281,94.8 C273,87.8 262.9,82.1 248.4,82.1 C226.3,82.1 212,100.2 211.8,122.9 C211.6,146.4 226.6,162.8 247.2,162.8 C261.5,162.9 272.3,155.8 281,146.2 Z" fill="#6D4B75"></path>
                <path d="M325.8,120.9 C325.8,93.7 347.6,68.8 376.5,68.8 C401.6,68.8 419.9,85.2 419.9,100.7 C419.9,109.6 413.8,115.7 405.6,115.7 C399,115.7 392.9,110.5 392.9,103 C392.9,99.7 394.5,96.4 397.1,94.6 C394.8,89.9 386.3,85.4 376.5,85.4 C362.9,85.4 346.2,96.9 346.2,121.3 C346.2,142.2 361.5,156.3 382.3,156.3 C394,156.3 404.6,152.8 417,145.5 L415.1,164 C404.8,170.6 392.8,173.6 380.4,173.6 C349,173.7 325.8,152.1 325.8,120.9 Z" fill="#36263A"></path>
                <path d="M438.7,121.4 C438.7,93 459.3,68.8 491.5,68.8 C523.6,68.8 544.3,92.7 544.3,121.4 C544.3,149.6 523.4,173.7 491.5,173.7 C459.1,173.7 438.7,149.7 438.7,121.4 Z M523.4,121.4 C523.4,100.8 510.3,86 491.5,86 C472.5,86 459.4,100.8 459.4,121.4 C459.4,142 472.5,156.6 491.5,156.6 C510.2,156.5 523.4,142 523.4,121.4 Z" fill="#36263A"></path>
                <path d="M563.7,121.8 C563.7,92.9 584.1,68.8 613,68.8 C625.7,68.8 636.2,73.5 643,79.8 L643,17.4 L625.6,17.4 L625.6,0 L663.1,0 L663.1,154.9 L678.8,154.9 L678.8,171.8 L643.1,171.8 L643.1,158.9 C635.1,167.3 625,173.7 611,173.7 C584.4,173.7 563.7,152.6 563.7,121.8 Z M643,143.2 L643,96.3 C635.7,90.7 627,86.4 615.3,86.4 C597.9,86.4 584.6,100.2 584.3,121.6 C584.3,142.7 597.7,156.1 614.8,156.1 C626.4,156.1 635.5,150.7 643,143.2 Z" fill="#36263A"></path>
                <path d="M715.5,127.7 C718.3,146.9 732.4,156.3 752.1,156.3 C765,156.3 776,152.3 788,145.5 L786.4,164 C775.8,170.6 762.9,173.6 749.1,173.6 C716.5,173.6 694.4,152.5 694.4,121.5 C694.4,93.1 713.9,68.7 744.6,68.7 C775.8,68.7 792.2,91 792.2,116.8 C792.2,120.6 791.7,124.5 791.3,127.6 L715.5,127.6 L715.5,127.7 Z M715.5,112.7 L772,112.7 C771.1,96.5 761.2,85.5 744.1,85.5 C730.5,85.5 718.1,94.4 715.5,112.7 Z" fill="#36263A"></path>
            </g>
            <g transform="translate(0.000000, 11.000000)">
                <g transform="translate(99.000000, 174.000000)" id="Rectangle-path">
                    <rect fill="#309766" fill-rule="nonzero" x="0.9" y="0.4" width="24.8" height="24.8"></rect>
                    <rect stroke="#FFFFFF" stroke-width="1.1303" x="0.9" y="0.4" width="24.8" height="24.8"></rect>
                </g>
                <g transform="translate(25.000000, 50.000000)" id="Rectangle-path">
                    <rect fill="#8B6B9A" fill-rule="nonzero" x="0.6" y="0.5" width="24.8" height="24.8"></rect>
                    <rect stroke="#FFFFFF" stroke-width="1.1303" x="0.6" y="0.5" width="24.8" height="24.8"></rect>
                </g>
                <rect id="Rectangle-path" stroke="#FFFFFF" stroke-width="1.1303" fill="#836F95" fill-rule="nonzero" x="25.6" y="75.3" width="24.8" height="24.8"></rect>
                <g transform="translate(25.000000, 100.000000)" id="Rectangle-path">
                    <rect fill="#7B7390" fill-rule="nonzero" x="0.6" y="0.1" width="24.8" height="24.8"></rect>
                    <rect stroke="#FFFFFF" stroke-width="1.1303" x="0.6" y="0.1" width="24.8" height="24.8"></rect>
                </g>
                <rect id="Rectangle-path" stroke="#FFFFFF" stroke-width="1.1303" fill="#94689F" fill-rule="nonzero" x="25.6" y="25.8" width="24.8" height="24.8"></rect>
                <rect id="Rectangle-path" stroke="#FFFFFF" stroke-width="1.1303" fill="#8B6B9A" fill-rule="nonzero" x="50.4" y="0.9" width="24.8" height="24.8"></rect>
                <g transform="translate(25.000000, 0.000000)" id="Rectangle-path">
                    <rect fill="#94689F" fill-rule="nonzero" x="0.6" y="0.9" width="24.8" height="24.8"></rect>
                    <rect stroke="#FFFFFF" stroke-width="1.1303" x="0.6" y="0.9" width="24.8" height="24.8"></rect>
                </g>
                <g transform="translate(174.000000, 100.000000)" id="Rectangle-path">
                    <rect fill="#3A936A" fill-rule="nonzero" x="0.3" y="0.1" width="24.8" height="24.8"></rect>
                    <rect stroke="#FFFFFF" stroke-width="1.1303" x="0.3" y="0.1" width="24.8" height="24.8"></rect>
                </g>
                <g transform="translate(0.000000, 50.000000)" id="Rectangle-path">
                    <rect fill="#94689F" fill-rule="nonzero" x="0.8" y="0.5" width="24.8" height="24.8"></rect>
                    <rect stroke="#FFFFFF" stroke-width="1.1303" x="0.8" y="0.5" width="24.8" height="24.8"></rect>
                </g>
                <g transform="translate(0.000000, 25.000000)" id="Rectangle-path">
                    <rect fill="#94689F" fill-rule="nonzero" x="0.8" y="0.8" width="24.8" height="24.8"></rect>
                    <rect stroke="#FFFFFF" stroke-width="1.1303" x="0.8" y="0.8" width="24.8" height="24.8"></rect>
                </g>
                <g transform="translate(174.000000, 50.000000)" id="Rectangle-path">
                    <rect fill="#528779" fill-rule="nonzero" x="0.3" y="0.5" width="24.8" height="24.8"></rect>
                    <rect stroke="#FFFFFF" stroke-width="1.1303" x="0.3" y="0.5" width="24.8" height="24.8"></rect>
                </g>
                <g transform="translate(174.000000, 75.000000)" id="Rectangle-path">
                    <rect fill="#4B8B74" fill-rule="nonzero" x="0.3" y="0.3" width="24.8" height="24.8"></rect>
                    <rect stroke="#FFFFFF" stroke-width="1.1303" x="0.3" y="0.3" width="24.8" height="24.8"></rect>
                </g>
                <rect id="Rectangle-path" stroke="#FFFFFF" stroke-width="1.1303" fill="#5A837D" fill-rule="nonzero" x="174.3" y="25.8" width="24.8" height="24.8"></rect>
                <rect id="Rectangle-path" stroke="#FFFFFF" stroke-width="1.1303" fill="#6B7B87" fill-rule="nonzero" x="149.5" y="0.9" width="24.8" height="24.8"></rect>
                <g transform="translate(174.000000, 0.000000)" id="Rectangle-path">
                    <rect fill="#5A837D" fill-rule="nonzero" x="0.3" y="0.9" width="24.8" height="24.8"></rect>
                    <rect stroke="#FFFFFF" stroke-width="1.1303" x="0.3" y="0.9" width="24.8" height="24.8"></rect>
                </g>
                <rect id="Rectangle-path" stroke="#FFFFFF" stroke-width="1.1303" fill="#648083" fill-rule="nonzero" x="149.5" y="25.8" width="24.8" height="24.8"></rect>
                <rect id="Rectangle-path" stroke="#FFFFFF" stroke-width="1.1303" fill="#648083" fill-rule="nonzero" x="99.9" y="50.5" width="24.8" height="24.8"></rect>
                <rect id="Rectangle-path" stroke="#FFFFFF" stroke-width="1.1303" fill="#8B6B9A" fill-rule="nonzero" x="50.4" y="25.8" width="24.8" height="24.8"></rect>
                <rect id="Rectangle-path" stroke="#FFFFFF" stroke-width="1.1303" fill="#648083" fill-rule="nonzero" x="124.7" y="75.3" width="24.8" height="24.8"></rect>
                <g transform="translate(50.000000, 50.000000)" id="Rectangle-path">
                    <rect fill="#836F95" fill-rule="nonzero" x="0.4" y="0.5" width="24.8" height="24.8"></rect>
                    <rect stroke="#FFFFFF" stroke-width="1.1303" x="0.4" y="0.5" width="24.8" height="24.8"></rect>
                </g>
                <rect id="Rectangle-path" stroke="#FFFFFF" stroke-width="1.1303" fill="#7B7390" fill-rule="nonzero" x="50.4" y="75.3" width="24.8" height="24.8"></rect>
                <g transform="translate(50.000000, 100.000000)" id="Rectangle-path">
                    <rect fill="#73778C" fill-rule="nonzero" x="0.4" y="0.1" width="24.8" height="24.8"></rect>
                    <rect stroke="#FFFFFF" stroke-width="1.1303" x="0.4" y="0.1" width="24.8" height="24.8"></rect>
                </g>
                <rect id="Rectangle-path" stroke="#FFFFFF" stroke-width="1.1303" fill="#528779" fill-rule="nonzero" x="124.7" y="100.1" width="24.8" height="24.8"></rect>
                <g transform="translate(75.000000, 50.000000)" id="Rectangle-path">
                    <rect fill="#73778C" fill-rule="nonzero" x="0.1" y="0.5" width="24.8" height="24.8"></rect>
                    <rect stroke="#FFFFFF" stroke-width="1.1303" x="0.1" y="0.5" width="24.8" height="24.8"></rect>
                </g>
                <polygon id="Shape" stroke="#FFFFFF" stroke-width="1.1303" fill="#73778C" fill-rule="nonzero" points="75.1 75.3 75.1 100.1 99.9 100.1 99.9 75.3"></polygon>
                <rect id="Rectangle-path" stroke="#FFFFFF" stroke-width="1.1303" fill="#648083" fill-rule="nonzero" x="99.9" y="75.3" width="24.8" height="24.8"></rect>
                <g transform="translate(124.000000, 124.000000)" id="Rectangle-path">
                    <rect fill="#3A936A" fill-rule="nonzero" x="0.7" y="0.8" width="24.8" height="24.8"></rect>
                    <rect stroke="#FFFFFF" stroke-width="1.1303" x="0.7" y="0.8" width="24.8" height="24.8"></rect>
                </g>
                <rect id="Rectangle-path" stroke="#FFFFFF" stroke-width="1.1303" fill="#5A837D" fill-rule="nonzero" x="99.9" y="100.1" width="24.8" height="24.8"></rect>
                <rect id="Rectangle-path" stroke="#FFFFFF" stroke-width="1.1303" fill="#648083" fill-rule="nonzero" x="75.1" y="100.1" width="24.8" height="24.8"></rect>
                <rect id="Rectangle-path" stroke="#FFFFFF" stroke-width="1.1303" fill="#4B8B74" fill-rule="nonzero" x="99.9" y="124.8" width="24.8" height="24.8"></rect>
                <path d="M124.7,149.6 L124.7,124.8 L124.7,149.6 Z" id="Shape" stroke="#FFFFFF" stroke-width="1.1303" fill="#4BBC88" fill-rule="nonzero"></path>
                <g transform="translate(75.000000, 124.000000)" id="Rectangle-path">
                    <rect fill="#528779" fill-rule="nonzero" x="0.1" y="0.8" width="24.8" height="24.8"></rect>
                    <rect stroke="#FFFFFF" stroke-width="1.1303" x="0.1" y="0.8" width="24.8" height="24.8"></rect>
                </g>
                <rect id="Rectangle-path" stroke="#FFFFFF" stroke-width="1.1303" fill="#6B7B87" fill-rule="nonzero" x="124.7" y="50.5" width="24.8" height="24.8"></rect>
                <g transform="translate(149.000000, 50.000000)" id="Rectangle-path">
                    <rect fill="#5A837D" fill-rule="nonzero" x="0.5" y="0.5" width="24.8" height="24.8"></rect>
                    <rect stroke="#FFFFFF" stroke-width="1.1303" x="0.5" y="0.5" width="24.8" height="24.8"></rect>
                </g>
                <g transform="translate(0.000000, 75.000000)" id="Rectangle-path">
                    <rect fill="#8B6B9A" fill-rule="nonzero" x="0.8" y="0.3" width="24.8" height="24.8"></rect>
                    <rect stroke="#FFFFFF" stroke-width="1.1303" x="0.8" y="0.3" width="24.8" height="24.8"></rect>
                </g>
                <g transform="translate(149.000000, 100.000000)" id="Rectangle-path">
                    <rect fill="#4B8B74" fill-rule="nonzero" x="0.5" y="0.1" width="24.8" height="24.8"></rect>
                    <rect stroke="#FFFFFF" stroke-width="1.1303" x="0.5" y="0.1" width="24.8" height="24.8"></rect>
                </g>
                <g transform="translate(50.000000, 124.000000)" id="Rectangle-path">
                    <rect fill="#6B7B87" fill-rule="nonzero" x="0.4" y="0.8" width="24.8" height="24.8"></rect>
                    <rect stroke="#FFFFFF" stroke-width="1.1303" x="0.4" y="0.8" width="24.8" height="24.8"></rect>
                </g>
                <g transform="translate(75.000000, 25.000000)" id="Rectangle-path">
                    <rect fill="#836F95" fill-rule="nonzero" x="0.1" y="0.8" width="24.8" height="24.8"></rect>
                    <rect stroke="#FFFFFF" stroke-width="1.1303" x="0.1" y="0.8" width="24.8" height="24.8"></rect>
                </g>
                <g transform="translate(124.000000, 25.000000)" id="Rectangle-path">
                    <rect fill="#6B7B87" fill-rule="nonzero" x="0.7" y="0.8" width="24.8" height="24.8"></rect>
                    <rect stroke="#FFFFFF" stroke-width="1.1303" x="0.7" y="0.8" width="24.8" height="24.8"></rect>
                </g>
                <rect id="Rectangle-path" stroke="#FFFFFF" stroke-width="1.1303" fill="#4B8B74" fill-rule="nonzero" x="149.5" y="75.3" width="24.8" height="24.8"></rect>
                <g transform="translate(99.000000, 149.000000)" id="Rectangle-path">
                    <rect fill="#3A936A" fill-rule="nonzero" x="0.9" y="0.6" width="24.8" height="24.7"></rect>
                    <rect stroke="#FFFFFF" stroke-width="1.1303" x="0.9" y="0.6" width="24.8" height="24.7"></rect>
                </g>
                <rect id="Rectangle-path" stroke="#FFFFFF" stroke-width="1.1303" fill="#4B8B74" fill-rule="nonzero" x="75.1" y="149.6" width="24.8" height="24.7"></rect>
                <g transform="translate(149.000000, 124.000000)" id="Shape">
                    <polygon fill="#309766" fill-rule="nonzero" points="0.5 0.8 0.5 25.6 25.3 25.6 25.3 0.8"></polygon>
                    <polygon stroke="#FFFFFF" stroke-width="1.1303" points="0.5 0.8 0.5 25.6 25.3 25.6 25.3 0.8"></polygon>
                </g>
                <polygon id="Shape" stroke="#FFFFFF" stroke-width="1.1303" fill="#309766" fill-rule="nonzero" points="149.5 149.6 124.7 149.6 124.7 174.4 149.5 174.4"></polygon>
                <g transform="translate(199.000000, 75.000000)" id="Rectangle-path">
                    <rect fill="#4B8B74" fill-rule="nonzero" x="0" y="0.3" width="24.8" height="24.8"></rect>
                    <rect stroke="#FFFFFF" stroke-width="1.1303" x="0" y="0.3" width="24.8" height="24.8"></rect>
                </g>
                <g transform="translate(199.000000, 25.000000)" id="Rectangle-path">
                    <rect fill="#528779" fill-rule="nonzero" x="0" y="0.8" width="24.8" height="24.8"></rect>
                    <rect stroke="#FFFFFF" stroke-width="1.1303" x="0" y="0.8" width="24.8" height="24.8"></rect>
                </g>
                <g transform="translate(199.000000, 50.000000)" id="Rectangle-path">
                    <rect fill="#4B8B74" fill-rule="nonzero" x="0" y="0.5" width="24.8" height="24.8"></rect>
                    <rect stroke="#FFFFFF" stroke-width="1.1303" x="0" y="0.5" width="24.8" height="24.8"></rect>
                </g>
            </g>
        </g>
    </g>
</svg>